<?xml version="1.0" encoding="UTF-8"?><svg id="Vrstva_1" xmlns="http://www.w3.org/2000/svg" viewBox="0 0 521.55 347.57"><defs><style>.cls-1,.cls-2{fill:none;}.cls-1,.cls-2,.cls-3,.cls-4{stroke-miterlimit:10;}.cls-1,.cls-4{stroke:#009fe3;stroke-width:1.5px;}.cls-5{font-family:MyriadPro-Regular, 'Myriad Pro';font-size:42.18px;}.cls-2{stroke-width:2px;}.cls-2,.cls-3{stroke:#1d1d1b;}.cls-3{fill:#fff;}.cls-4{fill:#009fe3;}</style></defs><circle class="cls-3" cx="260.78" cy="38.5" r="38"/><circle class="cls-3" cx="152.49" cy="171.48" r="38"/><circle class="cls-3" cx="365.27" cy="171.48" r="38"/><circle class="cls-3" cx="38.5" cy="309.07" r="38"/><circle class="cls-3" cx="186.68" cy="309.07" r="38"/><circle class="cls-3" cx="334.87" cy="309.07" r="38"/><circle class="cls-3" cx="483.06" cy="309.07" r="38"/><line class="cls-2" x1="232.79" y1="64.19" x2="173.65" y2="139.93"/><line class="cls-2" x1="125.93" y1="201.03" x2="63.74" y2="280.68"/><line class="cls-2" x1="354.84" y1="209.48" x2="339.49" y2="271.36"/><line class="cls-2" x1="289.28" y1="63.61" x2="347.22" y2="138.04"/><line class="cls-2" x1="394.24" y1="196.64" x2="458.92" y2="279.73"/><line class="cls-2" x1="164.36" y1="205.68" x2="182.06" y2="271.36"/><text class="cls-5" transform="translate(249.04 51.03)"><tspan x="0" y="0">1</tspan></text><text class="cls-5" transform="translate(141.71 184.5)"><tspan x="0" y="0">2</tspan></text><text class="cls-5" transform="translate(355.13 184.5)"><tspan x="0" y="0">3</tspan></text><text class="cls-5" transform="translate(26.51 322.24)"><tspan x="0" y="0">4</tspan></text><text class="cls-5" transform="translate(175.46 321.73)"><tspan x="0" y="0">5</tspan></text><text class="cls-5" transform="translate(322.46 320.36)"><tspan x="0" y="0">6</tspan></text><text class="cls-5" transform="translate(473.64 322.24)"><tspan x="0" y="0">7</tspan></text><line class="cls-1" x1="210.19" y1="36.75" x2="143.07" y2="117.57"/><line class="cls-1" x1="332.36" y1="204.46" x2="315.96" y2="263.89"/><line class="cls-1" x1="94.26" y1="180.27" x2="27.14" y2="261.09"/><path class="cls-1" d="M83.6,301.96c5.4-15.18,31.1-85.64,52.62-82.57,4.44,.63,15.92,5.43,23.53,51.77"/><path class="cls-1" d="M350.43,271.07c5.4-15.18,10.47-59.21,32.21-59.39,17.34-.14,35.38,22.01,62.42,74.44"/><path class="cls-1" d="M190.48,264.74c10.53-33.42,31.38-179.44,73.92-180.11,13.85-.22,37.75,5.13,62.87,61.18"/><polygon class="cls-4" points="137.65 113.12 138.69 122.4 147.59 121.4 137.65 113.12"/><polygon class="cls-4" points="309.8 261.9 314.44 269.99 322.21 265.53 309.8 261.9"/><polygon class="cls-4" points="153.37 272.81 161.06 278.09 166.13 270.7 153.37 272.81"/><polygon class="cls-4" points="437.98 286.67 446.8 289.72 449.73 281.25 437.98 286.67"/><polygon class="cls-4" points="320.86 147.49 329.68 150.55 332.61 142.08 320.86 147.49"/><polygon class="cls-4" points="21.69 256.46 22.68 265.74 31.59 264.79 21.69 256.46"/></svg>